<svg xmlns="http://www.w3.org/2000/svg" style="background: transparent; background-color: transparent;" xmlns:xlink="http://www.w3.org/1999/xlink" version="1.1" width="225px" height="71px" viewBox="0 0 225 71"><defs/><g><g data-cell-id="0"><g data-cell-id="1"><g data-cell-id="flow1"><g id="cell-flow1" content="&lt;object label=&quot;&quot;/&gt;" data-label=""><g transform="translate(0.5,0.5)"><path d="M 66 35 L 141 35 L 141 40 L 209.63 40" fill="none" stroke="#000000" stroke-miterlimit="10" pointer-events="stroke" style="stroke: light-dark(rgb(0, 0, 0), rgb(255, 255, 255));"/><path d="M 214.88 40 L 207.88 43.5 L 209.63 40 L 207.88 36.5 Z" fill="#000000" stroke="#000000" stroke-miterlimit="10" pointer-events="all" style="fill: light-dark(rgb(0, 0, 0), rgb(255, 255, 255)); stroke: light-dark(rgb(0, 0, 0), rgb(255, 255, 255));"/></g></g></g><g data-cell-id="server1"><g id="cell-server1" content="&lt;object label=&quot;&quot;/&gt;" data-label=""><g transform="translate(0.5,0.5)"><path d="M 0 9 C 0 -3 60 -3 60 9 L 60 61 C 60 73 0 73 0 61 Z" fill="#ffffff" stroke="#000000" stroke-miterlimit="10" pointer-events="all" style="fill: light-dark(#ffffff, var(--ge-dark-color, #121212)); stroke: light-dark(rgb(0, 0, 0), rgb(255, 255, 255));"/><path d="M 0 9 C 0 18 60 18 60 9 M 0 13.5 C 0 22.5 60 22.5 60 13.5 M 0 18 C 0 27 60 27 60 18" fill="none" stroke="#000000" stroke-miterlimit="10" pointer-events="all" style="stroke: light-dark(rgb(0, 0, 0), rgb(255, 255, 255));"/></g></g></g><g data-cell-id="server1-fill"><g id="cell-server1-fill" content="&lt;object label=&quot;&amp;lt;div style=&amp;quot;text-align: start;&amp;quot;&amp;gt;server1&amp;lt;/div&amp;gt;&quot;/&gt;" data-label="&lt;div style=&quot;text-align: start;&quot;&gt;server1&lt;/div&gt;"><g transform="translate(0.5,0.5)"><path d="M 0 9 C 0 -3 66 -3 66 9 L 66 61 C 66 73 0 73 0 61 Z" fill="#ffffff" stroke="#000000" stroke-miterlimit="10" pointer-events="all" style="fill: light-dark(#ffffff, var(--ge-dark-color, #121212)); stroke: light-dark(rgb(0, 0, 0), rgb(255, 255, 255));"/><path d="M 0 9 C 0 18 66 18 66 9 M 0 13.5 C 0 22.5 66 22.5 66 13.5 M 0 18 C 0 27 66 27 66 18" fill="none" stroke="#000000" stroke-miterlimit="10" pointer-events="all" style="stroke: light-dark(rgb(0, 0, 0), rgb(255, 255, 255));"/></g><g><g><switch><foreignObject style="overflow: visible; text-align: left;" pointer-events="none" width="100%" height="100%" requiredFeatures="http://www.w3.org/TR/SVG11/feature#Extensibility"><div xmlns="http://www.w3.org/1999/xhtml" style="display: flex; align-items: unsafe center; justify-content: unsafe center; width: 64px; height: 1px; padding-top: 47px; margin-left: 1px;"><div style="box-sizing: border-box; font-size: 0; text-align: center; color: #000000; "><div style="display: inline-block; font-size: 12px; font-family: Helvetica; color: light-dark(#000000, #ffffff); line-height: 1.2; pointer-events: all; white-space: normal; word-wrap: normal; "><div style="text-align: start;">server1</div></div></div></div></foreignObject><text x="33" y="50" fill="light-dark(#000000, #ffffff)" font-family="Helvetica" font-size="12px" text-anchor="middle">server1</text></switch></g></g></g></g></g></g></g><switch><g requiredFeatures="http://www.w3.org/TR/SVG11/feature#Extensibility"/><a transform="translate(0,-5)" xlink:href="https://www.drawio.com/doc/faq/svg-export-text-problems" target="_blank"><text text-anchor="middle" font-size="10px" x="50%" y="100%">Text is not SVG - cannot display</text></a></switch></svg>